<mxfile host="app.diagrams.net" modified="2021-06-26T03:12:56.197Z" agent="5.0 (Windows NT 10.0; Win64; x64) AppleWebKit/537.36 (KHTML, like Gecko) Chrome/91.0.4472.114 Safari/537.36 Edg/91.0.864.54" etag="VtlbHQ6IOQ9tKC3OExU3" version="14.6.13" type="github">
  <diagram name="Page-1" id="2a216829-ef6e-dabb-86c1-c78162f3ba2b">
    <mxGraphModel dx="1736" dy="900" grid="1" gridSize="10" guides="1" tooltips="1" connect="1" arrows="1" fold="1" page="1" pageScale="1" pageWidth="850" pageHeight="1100" background="none" math="0" shadow="0">
      <root>
        <mxCell id="0" />
        <mxCell id="1" parent="0" />
        <mxCell id="OUEM5wNVM68ybDfLdWG--5" style="edgeStyle=orthogonalEdgeStyle;rounded=0;orthogonalLoop=1;jettySize=auto;html=1;exitX=1;exitY=0.5;exitDx=0;exitDy=0;entryX=0;entryY=0.5;entryDx=0;entryDy=0;" edge="1" parent="1" source="OUEM5wNVM68ybDfLdWG--23" target="OUEM5wNVM68ybDfLdWG--4">
          <mxGeometry relative="1" as="geometry">
            <mxPoint x="425" y="530" as="sourcePoint" />
            <Array as="points">
              <mxPoint x="330" y="530" />
              <mxPoint x="330" y="530" />
            </Array>
          </mxGeometry>
        </mxCell>
        <mxCell id="OUEM5wNVM68ybDfLdWG--20" style="edgeStyle=orthogonalEdgeStyle;rounded=0;orthogonalLoop=1;jettySize=auto;html=1;exitX=1;exitY=0.5;exitDx=0;exitDy=0;fontSize=30;startArrow=none;startFill=0;endArrow=classic;endFill=1;" edge="1" parent="1" source="OUEM5wNVM68ybDfLdWG--2" target="OUEM5wNVM68ybDfLdWG--21">
          <mxGeometry relative="1" as="geometry">
            <mxPoint x="1340" y="529.8571428571429" as="targetPoint" />
          </mxGeometry>
        </mxCell>
        <mxCell id="OUEM5wNVM68ybDfLdWG--2" value="" style="shape=sumEllipse;perimeter=ellipsePerimeter;whiteSpace=wrap;html=1;backgroundOutline=1;" vertex="1" parent="1">
          <mxGeometry x="1150" y="490" width="80" height="80" as="geometry" />
        </mxCell>
        <mxCell id="OUEM5wNVM68ybDfLdWG--7" style="edgeStyle=orthogonalEdgeStyle;rounded=0;orthogonalLoop=1;jettySize=auto;html=1;entryX=0;entryY=0.5;entryDx=0;entryDy=0;" edge="1" parent="1" source="OUEM5wNVM68ybDfLdWG--4" target="OUEM5wNVM68ybDfLdWG--6">
          <mxGeometry relative="1" as="geometry" />
        </mxCell>
        <UserObject label="&lt;font style=&quot;font-size: 25px&quot;&gt;d/dt&lt;/font&gt;" treeRoot="1" id="OUEM5wNVM68ybDfLdWG--4">
          <mxCell style="whiteSpace=wrap;html=1;align=center;treeFolding=1;treeMoving=1;newEdgeStyle={&quot;edgeStyle&quot;:&quot;elbowEdgeStyle&quot;,&quot;startArrow&quot;:&quot;none&quot;,&quot;endArrow&quot;:&quot;none&quot;};" vertex="1" parent="1">
            <mxGeometry x="530" y="492.5" width="200" height="75" as="geometry" />
          </mxCell>
        </UserObject>
        <mxCell id="OUEM5wNVM68ybDfLdWG--8" value="" style="edgeStyle=orthogonalEdgeStyle;rounded=0;orthogonalLoop=1;jettySize=auto;html=1;" edge="1" parent="1" source="OUEM5wNVM68ybDfLdWG--6" target="OUEM5wNVM68ybDfLdWG--2">
          <mxGeometry relative="1" as="geometry" />
        </mxCell>
        <UserObject label="&lt;font style=&quot;font-size: 25px&quot;&gt;a1&lt;/font&gt;" treeRoot="1" id="OUEM5wNVM68ybDfLdWG--6">
          <mxCell style="whiteSpace=wrap;html=1;align=center;treeFolding=1;treeMoving=1;newEdgeStyle={&quot;edgeStyle&quot;:&quot;elbowEdgeStyle&quot;,&quot;startArrow&quot;:&quot;none&quot;,&quot;endArrow&quot;:&quot;none&quot;};" vertex="1" parent="1">
            <mxGeometry x="840" y="492.5" width="200" height="75" as="geometry" />
          </mxCell>
        </UserObject>
        <mxCell id="OUEM5wNVM68ybDfLdWG--10" value="+" style="text;html=1;strokeColor=none;fillColor=none;align=center;verticalAlign=middle;whiteSpace=wrap;rounded=0;fontSize=25;" vertex="1" parent="1">
          <mxGeometry x="1150" y="520" width="40" height="20" as="geometry" />
        </mxCell>
        <mxCell id="OUEM5wNVM68ybDfLdWG--11" value="+" style="text;html=1;strokeColor=none;fillColor=none;align=center;verticalAlign=middle;whiteSpace=wrap;rounded=0;fontSize=25;" vertex="1" parent="1">
          <mxGeometry x="1170" y="540" width="40" height="20" as="geometry" />
        </mxCell>
        <mxCell id="OUEM5wNVM68ybDfLdWG--14" value="" style="edgeStyle=elbowEdgeStyle;elbow=vertical;startArrow=none;endArrow=classic;rounded=0;fontSize=25;startFill=0;endFill=1;entryX=0;entryY=0.5;entryDx=0;entryDy=0;" edge="1" target="OUEM5wNVM68ybDfLdWG--15" parent="1">
          <mxGeometry relative="1" as="geometry">
            <mxPoint x="460" y="530" as="sourcePoint" />
            <mxPoint x="540" y="690" as="targetPoint" />
            <Array as="points">
              <mxPoint x="510" y="678" />
            </Array>
          </mxGeometry>
        </mxCell>
        <UserObject label="&lt;span style=&quot;color: rgb(68, 68, 68); font-family: roboto, helvetica, sans-serif; text-align: left; background-color: rgb(255, 255, 255); font-size: 30px;&quot;&gt;&lt;font style=&quot;font-size: 30px;&quot;&gt;âˆ«&lt;/font&gt;&lt;/span&gt;" treeRoot="1" id="OUEM5wNVM68ybDfLdWG--15">
          <mxCell style="whiteSpace=wrap;html=1;align=center;treeFolding=1;treeMoving=1;newEdgeStyle={&quot;edgeStyle&quot;:&quot;elbowEdgeStyle&quot;,&quot;startArrow&quot;:&quot;none&quot;,&quot;endArrow&quot;:&quot;none&quot;};fontSize=30;" vertex="1" parent="1">
            <mxGeometry x="530" y="640" width="200" height="75" as="geometry" />
          </mxCell>
        </UserObject>
        <mxCell id="OUEM5wNVM68ybDfLdWG--16" style="edgeStyle=orthogonalEdgeStyle;rounded=0;orthogonalLoop=1;jettySize=auto;html=1;entryX=0;entryY=0.5;entryDx=0;entryDy=0;exitX=1;exitY=0.5;exitDx=0;exitDy=0;" edge="1" parent="1" target="OUEM5wNVM68ybDfLdWG--18" source="OUEM5wNVM68ybDfLdWG--15">
          <mxGeometry relative="1" as="geometry">
            <mxPoint x="760" y="678" as="sourcePoint" />
          </mxGeometry>
        </mxCell>
        <UserObject label="&lt;font style=&quot;font-size: 25px&quot;&gt;1/b&lt;/font&gt;" treeRoot="1" id="OUEM5wNVM68ybDfLdWG--18">
          <mxCell style="whiteSpace=wrap;html=1;align=center;treeFolding=1;treeMoving=1;newEdgeStyle={&quot;edgeStyle&quot;:&quot;elbowEdgeStyle&quot;,&quot;startArrow&quot;:&quot;none&quot;,&quot;endArrow&quot;:&quot;none&quot;};" vertex="1" parent="1">
            <mxGeometry x="840" y="640" width="200" height="75" as="geometry" />
          </mxCell>
        </UserObject>
        <mxCell id="OUEM5wNVM68ybDfLdWG--19" value="" style="edgeStyle=elbowEdgeStyle;elbow=vertical;startArrow=none;endArrow=classic;rounded=0;fontSize=25;startFill=0;endFill=1;entryX=0.5;entryY=1;entryDx=0;entryDy=0;exitX=1;exitY=0.5;exitDx=0;exitDy=0;entryPerimeter=0;" edge="1" parent="1" source="OUEM5wNVM68ybDfLdWG--18" target="OUEM5wNVM68ybDfLdWG--2">
          <mxGeometry relative="1" as="geometry">
            <mxPoint x="1135" y="603.5" as="sourcePoint" />
            <mxPoint x="1205" y="751" as="targetPoint" />
            <Array as="points">
              <mxPoint x="1110" y="678" />
            </Array>
          </mxGeometry>
        </mxCell>
        <mxCell id="OUEM5wNVM68ybDfLdWG--21" value="x2" style="text;html=1;strokeColor=none;fillColor=none;align=center;verticalAlign=middle;whiteSpace=wrap;rounded=0;fontSize=30;" vertex="1" parent="1">
          <mxGeometry x="1320" y="519.8571428571429" width="40" height="20" as="geometry" />
        </mxCell>
        <mxCell id="OUEM5wNVM68ybDfLdWG--23" value="x1" style="text;html=1;strokeColor=none;fillColor=none;align=center;verticalAlign=middle;whiteSpace=wrap;rounded=0;fontSize=30;" vertex="1" parent="1">
          <mxGeometry x="270" y="519.8571428571429" width="40" height="20" as="geometry" />
        </mxCell>
        <mxCell id="OUEM5wNVM68ybDfLdWG--24" style="edgeStyle=orthogonalEdgeStyle;rounded=0;orthogonalLoop=1;jettySize=auto;html=1;exitX=1;exitY=0.5;exitDx=0;exitDy=0;entryX=0;entryY=0.5;entryDx=0;entryDy=0;" edge="1" parent="1" source="OUEM5wNVM68ybDfLdWG--39" target="OUEM5wNVM68ybDfLdWG--28">
          <mxGeometry relative="1" as="geometry">
            <mxPoint x="425" y="1000" as="sourcePoint" />
            <Array as="points">
              <mxPoint x="330" y="1000" />
              <mxPoint x="330" y="1000" />
            </Array>
          </mxGeometry>
        </mxCell>
        <mxCell id="OUEM5wNVM68ybDfLdWG--25" style="edgeStyle=orthogonalEdgeStyle;rounded=0;orthogonalLoop=1;jettySize=auto;html=1;exitX=1;exitY=0.5;exitDx=0;exitDy=0;fontSize=30;startArrow=none;startFill=0;endArrow=classic;endFill=1;" edge="1" parent="1" source="OUEM5wNVM68ybDfLdWG--26" target="OUEM5wNVM68ybDfLdWG--38">
          <mxGeometry relative="1" as="geometry">
            <mxPoint x="1340" y="999.8571428571429" as="targetPoint" />
          </mxGeometry>
        </mxCell>
        <mxCell id="OUEM5wNVM68ybDfLdWG--26" value="" style="shape=sumEllipse;perimeter=ellipsePerimeter;whiteSpace=wrap;html=1;backgroundOutline=1;" vertex="1" parent="1">
          <mxGeometry x="1150" y="960" width="80" height="80" as="geometry" />
        </mxCell>
        <mxCell id="OUEM5wNVM68ybDfLdWG--27" style="edgeStyle=orthogonalEdgeStyle;rounded=0;orthogonalLoop=1;jettySize=auto;html=1;entryX=0;entryY=0.5;entryDx=0;entryDy=0;" edge="1" parent="1" source="OUEM5wNVM68ybDfLdWG--28" target="OUEM5wNVM68ybDfLdWG--30">
          <mxGeometry relative="1" as="geometry" />
        </mxCell>
        <UserObject label="&lt;font style=&quot;font-size: 25px&quot;&gt;d/dt&lt;/font&gt;" treeRoot="1" id="OUEM5wNVM68ybDfLdWG--28">
          <mxCell style="whiteSpace=wrap;html=1;align=center;treeFolding=1;treeMoving=1;newEdgeStyle={&quot;edgeStyle&quot;:&quot;elbowEdgeStyle&quot;,&quot;startArrow&quot;:&quot;none&quot;,&quot;endArrow&quot;:&quot;none&quot;};" vertex="1" parent="1">
            <mxGeometry x="530" y="962.5" width="200" height="75" as="geometry" />
          </mxCell>
        </UserObject>
        <mxCell id="OUEM5wNVM68ybDfLdWG--29" value="" style="edgeStyle=orthogonalEdgeStyle;rounded=0;orthogonalLoop=1;jettySize=auto;html=1;" edge="1" parent="1" source="OUEM5wNVM68ybDfLdWG--30" target="OUEM5wNVM68ybDfLdWG--26">
          <mxGeometry relative="1" as="geometry" />
        </mxCell>
        <UserObject label="&lt;font style=&quot;font-size: 25px&quot;&gt;3&lt;/font&gt;" treeRoot="1" id="OUEM5wNVM68ybDfLdWG--30">
          <mxCell style="whiteSpace=wrap;html=1;align=center;treeFolding=1;treeMoving=1;newEdgeStyle={&quot;edgeStyle&quot;:&quot;elbowEdgeStyle&quot;,&quot;startArrow&quot;:&quot;none&quot;,&quot;endArrow&quot;:&quot;none&quot;};" vertex="1" parent="1">
            <mxGeometry x="840" y="962.5" width="200" height="75" as="geometry" />
          </mxCell>
        </UserObject>
        <mxCell id="OUEM5wNVM68ybDfLdWG--31" value="+" style="text;html=1;strokeColor=none;fillColor=none;align=center;verticalAlign=middle;whiteSpace=wrap;rounded=0;fontSize=25;" vertex="1" parent="1">
          <mxGeometry x="1150" y="990" width="40" height="20" as="geometry" />
        </mxCell>
        <mxCell id="OUEM5wNVM68ybDfLdWG--32" value="+" style="text;html=1;strokeColor=none;fillColor=none;align=center;verticalAlign=middle;whiteSpace=wrap;rounded=0;fontSize=25;" vertex="1" parent="1">
          <mxGeometry x="1170" y="1010" width="40" height="20" as="geometry" />
        </mxCell>
        <mxCell id="OUEM5wNVM68ybDfLdWG--33" value="" style="edgeStyle=elbowEdgeStyle;elbow=vertical;startArrow=none;endArrow=classic;rounded=0;fontSize=25;startFill=0;endFill=1;exitX=1;exitY=0.5;exitDx=0;exitDy=0;entryX=0;entryY=0.5;entryDx=0;entryDy=0;" edge="1" parent="1" target="OUEM5wNVM68ybDfLdWG--42" source="OUEM5wNVM68ybDfLdWG--43">
          <mxGeometry relative="1" as="geometry">
            <mxPoint x="390" y="1148" as="sourcePoint" />
            <mxPoint x="420" y="1148" as="targetPoint" />
            <Array as="points">
              <mxPoint x="510" y="1148" />
            </Array>
          </mxGeometry>
        </mxCell>
        <mxCell id="OUEM5wNVM68ybDfLdWG--35" style="edgeStyle=orthogonalEdgeStyle;rounded=0;orthogonalLoop=1;jettySize=auto;html=1;entryX=0;entryY=0.5;entryDx=0;entryDy=0;" edge="1" parent="1" source="OUEM5wNVM68ybDfLdWG--42" target="OUEM5wNVM68ybDfLdWG--36">
          <mxGeometry relative="1" as="geometry">
            <mxPoint x="730" y="1147.5" as="sourcePoint" />
          </mxGeometry>
        </mxCell>
        <UserObject label="&lt;font style=&quot;font-size: 25px&quot;&gt;a1&lt;/font&gt;" treeRoot="1" id="OUEM5wNVM68ybDfLdWG--36">
          <mxCell style="whiteSpace=wrap;html=1;align=center;treeFolding=1;treeMoving=1;newEdgeStyle={&quot;edgeStyle&quot;:&quot;elbowEdgeStyle&quot;,&quot;startArrow&quot;:&quot;none&quot;,&quot;endArrow&quot;:&quot;none&quot;};" vertex="1" parent="1">
            <mxGeometry x="840" y="1110" width="200" height="75" as="geometry" />
          </mxCell>
        </UserObject>
        <mxCell id="OUEM5wNVM68ybDfLdWG--37" value="" style="edgeStyle=elbowEdgeStyle;elbow=vertical;startArrow=none;endArrow=classic;rounded=0;fontSize=25;startFill=0;endFill=1;entryX=0.5;entryY=1;entryDx=0;entryDy=0;exitX=1;exitY=0.5;exitDx=0;exitDy=0;entryPerimeter=0;" edge="1" parent="1" source="OUEM5wNVM68ybDfLdWG--36" target="OUEM5wNVM68ybDfLdWG--26">
          <mxGeometry relative="1" as="geometry">
            <mxPoint x="1135" y="1073.5" as="sourcePoint" />
            <mxPoint x="1205" y="1221" as="targetPoint" />
            <Array as="points">
              <mxPoint x="1110" y="1148" />
            </Array>
          </mxGeometry>
        </mxCell>
        <mxCell id="OUEM5wNVM68ybDfLdWG--38" value="x3" style="text;html=1;strokeColor=none;fillColor=none;align=center;verticalAlign=middle;whiteSpace=wrap;rounded=0;fontSize=30;" vertex="1" parent="1">
          <mxGeometry x="1320" y="989.8571428571429" width="40" height="20" as="geometry" />
        </mxCell>
        <mxCell id="OUEM5wNVM68ybDfLdWG--39" value="x1" style="text;html=1;strokeColor=none;fillColor=none;align=center;verticalAlign=middle;whiteSpace=wrap;rounded=0;fontSize=30;" vertex="1" parent="1">
          <mxGeometry x="270" y="989.8571428571429" width="40" height="20" as="geometry" />
        </mxCell>
        <mxCell id="OUEM5wNVM68ybDfLdWG--40" value="" style="edgeStyle=elbowEdgeStyle;elbow=vertical;startArrow=none;endArrow=classic;rounded=0;fontSize=25;startFill=0;endFill=1;entryX=0;entryY=0.5;entryDx=0;entryDy=0;" edge="1" parent="1" target="OUEM5wNVM68ybDfLdWG--41">
          <mxGeometry relative="1" as="geometry">
            <mxPoint x="460" y="1000" as="sourcePoint" />
            <mxPoint x="530" y="837.5" as="targetPoint" />
            <Array as="points">
              <mxPoint x="510" y="838" />
            </Array>
          </mxGeometry>
        </mxCell>
        <mxCell id="OUEM5wNVM68ybDfLdWG--45" style="edgeStyle=orthogonalEdgeStyle;rounded=0;orthogonalLoop=1;jettySize=auto;html=1;entryX=0.5;entryY=0;entryDx=0;entryDy=0;fontSize=30;startArrow=none;startFill=0;endArrow=classic;endFill=1;" edge="1" parent="1" source="OUEM5wNVM68ybDfLdWG--41" target="OUEM5wNVM68ybDfLdWG--26">
          <mxGeometry relative="1" as="geometry" />
        </mxCell>
        <UserObject label="&lt;font style=&quot;font-size: 25px&quot;&gt;b&lt;/font&gt;" treeRoot="1" id="OUEM5wNVM68ybDfLdWG--41">
          <mxCell style="whiteSpace=wrap;html=1;align=center;treeFolding=1;treeMoving=1;newEdgeStyle={&quot;edgeStyle&quot;:&quot;elbowEdgeStyle&quot;,&quot;startArrow&quot;:&quot;none&quot;,&quot;endArrow&quot;:&quot;none&quot;};" vertex="1" parent="1">
            <mxGeometry x="530" y="800" width="200" height="75" as="geometry" />
          </mxCell>
        </UserObject>
        <UserObject label="&lt;font style=&quot;font-size: 25px&quot;&gt;d^2/dt^2&lt;/font&gt;" treeRoot="1" id="OUEM5wNVM68ybDfLdWG--42">
          <mxCell style="whiteSpace=wrap;html=1;align=center;treeFolding=1;treeMoving=1;newEdgeStyle={&quot;edgeStyle&quot;:&quot;elbowEdgeStyle&quot;,&quot;startArrow&quot;:&quot;none&quot;,&quot;endArrow&quot;:&quot;none&quot;};" vertex="1" parent="1">
            <mxGeometry x="530" y="1110" width="200" height="75" as="geometry" />
          </mxCell>
        </UserObject>
        <mxCell id="OUEM5wNVM68ybDfLdWG--43" value="x2" style="text;html=1;strokeColor=none;fillColor=none;align=center;verticalAlign=middle;whiteSpace=wrap;rounded=0;fontSize=30;" vertex="1" parent="1">
          <mxGeometry x="270" y="1137.497142857143" width="40" height="20" as="geometry" />
        </mxCell>
        <mxCell id="OUEM5wNVM68ybDfLdWG--46" value="-" style="text;html=1;strokeColor=none;fillColor=none;align=center;verticalAlign=middle;whiteSpace=wrap;rounded=0;fontSize=25;" vertex="1" parent="1">
          <mxGeometry x="1170" y="969.86" width="40" height="20" as="geometry" />
        </mxCell>
      </root>
    </mxGraphModel>
  </diagram>
</mxfile>
